<svg width="126" height="40" viewBox="0 0 126 40" fill="none" xmlns="http://www.w3.org/2000/svg">
<g clip-path="url(#clip0_939_96)">
<path d="M66.8562 10.4557C66.8562 11.841 65.7083 12.9745 64.3052 12.9745C62.9021 12.9745 61.7542 11.841 61.7542 10.4557C61.7542 9.07034 62.8384 7.93688 64.3052 7.93688C65.772 7.96837 66.8562 9.10183 66.8562 10.4557ZM56.397 15.4933C56.397 15.7137 56.397 16.123 56.397 16.123C56.397 16.123 55.1853 14.5802 52.6024 14.5802C48.3613 14.5802 45.0131 17.7917 45.0131 22.1996C45.0131 26.6074 48.2975 29.8189 52.6024 29.8189C55.2172 29.8189 56.397 28.2447 56.397 28.2447V28.9058C56.397 29.2207 56.6202 29.4411 56.9391 29.4411H60.096V14.958C60.096 14.958 57.1942 14.958 56.9391 14.958C56.6202 14.958 56.397 15.2414 56.397 15.4933ZM56.397 24.7813C55.8231 25.6314 54.6432 26.3556 53.2401 26.3556C50.7529 26.3556 48.8396 24.8128 48.8396 22.1996C48.8396 19.5863 50.7529 18.0435 53.2401 18.0435C54.6113 18.0435 55.8549 18.7992 56.397 19.6178V24.7813ZM62.4557 14.958H66.2185V29.4411H62.4557V14.958ZM118.419 14.5802C115.836 14.5802 114.624 16.123 114.624 16.123V7.99985H110.861V29.4726C110.861 29.4726 113.763 29.4726 114.018 29.4726C114.337 29.4726 114.56 29.1892 114.56 28.9373V28.2761C114.56 28.2761 115.772 29.8504 118.355 29.8504C122.596 29.8504 125.944 26.6074 125.944 22.231C125.976 17.8232 122.628 14.5802 118.419 14.5802ZM117.813 26.3241C116.378 26.3241 115.23 25.5999 114.656 24.7498V19.5863C115.23 18.8307 116.505 18.0121 117.813 18.0121C120.3 18.0121 122.213 19.5548 122.213 22.1681C122.213 24.7813 120.3 26.3241 117.813 26.3241ZM108.948 20.8457V29.4726H105.185V21.2865C105.185 18.8936 104.42 17.9176 102.284 17.9176C101.136 17.9176 99.9876 18.4843 99.2542 19.3344V29.4411H95.4914V14.958H98.457C98.7759 14.958 98.9991 15.2414 98.9991 15.4933V16.123C100.083 14.9895 101.55 14.5802 102.985 14.5802C104.611 14.5802 105.982 15.0525 107.099 15.9655C108.438 17.036 108.948 18.4214 108.948 20.8457ZM86.4034 14.5802C83.8205 14.5802 82.6088 16.123 82.6088 16.123V7.99985H78.846V29.4726C78.846 29.4726 81.7478 29.4726 82.0029 29.4726C82.3218 29.4726 82.545 29.1892 82.545 28.9373V28.2761C82.545 28.2761 83.7567 29.8504 86.3396 29.8504C90.5807 29.8504 93.9289 26.6074 93.9289 22.231C93.9927 17.8232 90.6764 14.5802 86.4034 14.5802ZM85.7975 26.3241C84.3626 26.3241 83.2146 25.5999 82.6407 24.7498V19.5863C83.2146 18.8307 84.4901 18.0121 85.7975 18.0121C88.2848 18.0121 90.198 19.5548 90.198 22.1681C90.198 24.7813 88.2848 26.3241 85.7975 26.3241ZM75.6253 14.5802C76.7733 14.5802 77.3473 14.7691 77.3473 14.7691V18.201C77.3473 18.201 74.2223 17.162 72.2771 19.3659V29.5041H68.5144V14.958C68.5144 14.958 71.4162 14.958 71.6713 14.958C71.9901 14.958 72.2134 15.2414 72.2134 15.4933V16.123C72.9468 15.3044 74.4774 14.5802 75.6253 14.5802ZM36.7223 28.1502C36.531 27.6779 36.3396 27.1742 36.1483 26.7649C35.8294 26.0722 35.5105 25.411 35.2554 24.8128L35.2236 24.7813C32.545 18.9881 29.6432 13.1319 26.582 7.37016L26.4544 7.14976C26.1355 6.58303 25.8167 5.95333 25.5297 5.32364C25.147 4.63097 24.7644 3.90681 24.1266 3.21414C22.883 1.67138 21.0973 0.821289 19.184 0.821289C17.2389 0.821289 15.485 1.67138 14.1776 3.11969C13.6037 3.81236 13.1572 4.53651 12.7746 5.22918C12.4557 5.85888 12.1368 6.45709 11.8498 7.05531L11.7223 7.2757C8.72483 13.0689 5.79116 18.9251 3.0807 24.6869L3.04881 24.7498C2.76182 25.3795 2.47483 26.0092 2.15596 26.7019C1.96463 27.1112 1.7733 27.5835 1.58198 28.0872C1.07177 29.5041 0.912334 30.8579 1.10366 32.2433C1.5182 35.1399 3.49524 37.5642 6.17381 38.6347C7.19422 39.044 8.24652 39.2644 9.3307 39.2644C9.64958 39.2644 10.0322 39.2329 10.3511 39.2014C11.6266 39.044 12.9659 38.6347 14.2414 37.8791C15.8358 36.9975 17.3664 35.7066 19.0884 33.8805C20.8103 35.7381 22.3728 36.9975 23.9353 37.8791C25.2108 38.6032 26.5501 39.044 27.8256 39.2014C28.1445 39.2329 28.5271 39.2644 28.846 39.2644C29.9302 39.2644 31.0463 39.0755 32.0029 38.6347C34.7452 37.5642 36.6585 35.0769 37.073 32.2433C37.3919 30.9209 37.2325 29.567 36.7223 28.1502ZM19.1202 30.1338C17.0157 27.5205 15.6445 25.0332 15.1662 22.9552C14.9748 22.0736 14.9429 21.2865 15.0386 20.5938C15.1024 19.9641 15.3575 19.4289 15.6764 18.9881C16.4098 17.9491 17.6534 17.2879 19.1202 17.2879C20.5871 17.2879 21.8626 17.9176 22.5641 18.9881C22.883 19.4604 23.1062 19.9956 23.2019 20.5938C23.3294 21.2865 23.2656 22.1051 23.0743 22.9552C22.596 25.0332 21.2248 27.489 19.1202 30.1338ZM34.6815 31.9599C34.3945 33.9749 33.0552 35.7066 31.1419 36.4622C30.2172 36.84 29.1968 36.966 28.1764 36.84C27.1878 36.7141 26.2312 36.4307 25.2108 35.8325C23.8077 35.0769 22.4047 33.8805 20.7465 32.0858C23.3294 28.9688 24.8919 26.1037 25.4659 23.5534C25.7529 22.357 25.7848 21.2865 25.6572 20.279C25.4978 19.3029 25.147 18.4214 24.6049 17.6657C23.3932 15.9341 21.3524 14.9265 19.0884 14.9265C16.8243 14.9265 14.7835 15.9655 13.5718 17.6657C13.0297 18.4214 12.6789 19.3344 12.5195 20.279C12.36 21.2865 12.3919 22.3885 12.7108 23.5534C13.2848 26.1037 14.9111 29.0003 17.4302 32.1173C15.8358 33.8805 14.4009 35.0769 12.9659 35.864C11.9455 36.4307 10.9889 36.7456 10.0003 36.8715C8.94805 36.9975 7.92764 36.8401 7.03478 36.4937C5.12152 35.7381 3.75034 33.9749 3.49524 31.9914C3.36769 31.0153 3.46335 30.0708 3.84601 29.0003C3.97356 28.6225 4.16489 28.2447 4.35621 27.7724C4.6432 27.1427 4.93019 26.513 5.24907 25.8518L5.28096 25.7888C7.95953 20.0586 10.8613 14.1709 13.8588 8.47213L13.9863 8.25173C14.3052 7.685 14.6241 7.05531 14.9111 6.48858C15.2299 5.85888 15.5807 5.29215 15.9952 4.78839C16.8243 3.87533 17.9085 3.37157 19.1202 3.37157C20.332 3.37157 21.4162 3.87533 22.2452 4.78839C22.6598 5.29215 23.0105 5.85888 23.3294 6.48858C23.6483 7.05531 23.9672 7.685 24.2542 8.25173L24.3817 8.47213C27.3473 14.2024 30.2491 20.0901 32.9276 25.8203V25.8518C33.2465 26.4815 33.5016 27.1742 33.8205 27.7724C34.0118 28.2447 34.2031 28.6225 34.3307 29.0003C34.7134 29.9763 34.8409 30.9524 34.6815 31.9599Z" fill="#244D4D"/>
</g>
<defs>
<clipPath id="clip0_939_96">
<rect width="125" height="39" fill="white" transform="translate(0.976562 0.486328)"/>
</clipPath>
</defs>
</svg>
