<svg width="107" height="38" viewBox="0 0 107 38" fill="none" xmlns="http://www.w3.org/2000/svg">
<path d="M13.0517 0.294556H4.77051C4.20372 0.294556 3.72183 0.837225 3.6334 1.57465L0.284087 29.5575C0.217471 30.1095 0.542061 30.6074 0.967017 30.6074H4.9206C5.48729 30.6074 5.96918 30.065 6.05761 29.3262L6.96091 21.7788C7.04815 21.0399 7.53123 20.4973 8.09673 20.4973H10.7183C16.1734 20.4973 19.3217 17.0188 20.1439 10.1256C20.5144 7.10974 20.1596 4.74026 19.088 3.0808C17.911 1.25837 15.8234 0.294556 13.0517 0.294556ZM14.0071 10.515C13.5543 14.4307 11.2838 14.4307 9.08846 14.4307H7.83885L8.7155 7.11784C8.76762 6.67578 9.05816 6.35028 9.39726 6.35028H9.96996C11.4654 6.35028 12.8762 6.35028 13.6051 7.4735C14.0398 8.14377 14.173 9.13942 14.0071 10.515Z" fill="#283B82"/>
<path d="M37.8053 10.3893H33.8398C33.502 10.3893 33.2102 10.7148 33.1579 11.1568L32.9826 12.6184L32.7052 12.0886C31.8467 10.4466 29.9321 9.89783 28.0214 9.89783C23.6392 9.89783 19.8964 14.2715 19.1674 20.4068C18.7885 23.4672 19.3273 26.3937 20.6447 28.4344C21.8532 30.3109 23.5823 31.0928 25.6397 31.0928C29.1707 31.0928 31.1287 28.1011 31.1287 28.1011L30.9518 29.5531C30.8851 30.1084 31.2098 30.6062 31.6324 30.6062H35.2043C35.7723 30.6062 36.2518 30.0637 36.3415 29.325L38.4847 11.4392C38.5526 10.8886 38.2292 10.3893 37.8053 10.3893ZM32.2777 20.56C31.8952 23.5454 30.0969 25.5497 27.8036 25.5497C26.6521 25.5497 25.7317 25.0629 25.1407 24.1406C24.5547 23.2247 24.3318 21.9211 24.5184 20.4689C24.8755 17.509 26.7041 15.4396 28.9622 15.4396C30.0885 15.4396 31.0039 15.9326 31.6069 16.8627C32.2112 17.8026 32.4508 19.1142 32.2777 20.56Z" fill="#283B82"/>
<path d="M58.9256 10.3889H54.9406C54.5604 10.3889 54.2032 10.6378 53.9876 11.0544L48.4914 21.723L46.1617 11.4708C46.0152 10.8293 45.566 10.3889 45.0574 10.3889H41.1414C40.6654 10.3889 40.335 11.0016 40.4863 11.592L44.8757 28.5666L40.749 36.2434C40.4244 36.848 40.7513 37.6797 41.3122 37.6797H45.2924C45.6701 37.6797 46.0238 37.437 46.238 37.0285L59.4923 11.8171C59.8096 11.2138 59.4839 10.3889 58.9256 10.3889Z" fill="#283B82"/>
<path d="M72.12 0.294556H63.8376C63.2722 0.294556 62.7901 0.837225 62.7017 1.57465L59.3524 29.5575C59.286 30.1095 59.6104 30.6074 60.033 30.6074H64.2833C64.6779 30.6074 65.0159 30.2278 65.0776 29.7108L66.028 21.7788C66.1152 21.0399 66.5985 20.4973 67.1639 20.4973H69.7843C75.2404 20.4973 78.3876 17.0188 79.211 10.1256C79.5829 7.10974 79.2257 4.74026 78.1539 3.0808C76.9781 1.25837 74.8918 0.294556 72.12 0.294556ZM73.0755 10.515C72.6238 14.4307 70.3536 14.4307 68.1568 14.4307H66.9085L67.7864 7.11784C67.8385 6.67578 68.1265 6.35028 68.4668 6.35028H69.0395C70.5339 6.35028 71.9457 6.35028 72.6746 7.4735C73.1094 8.14377 73.2413 9.13942 73.0755 10.515Z" fill="#469BDB"/>
<path d="M96.8726 10.3893H92.9094C92.5691 10.3893 92.2795 10.7148 92.2288 11.1568L92.0532 12.6184L91.7748 12.0886C90.9163 10.4466 89.003 9.89783 87.0923 9.89783C82.7099 9.89783 78.9685 14.2715 78.2393 20.4068C77.8616 23.4672 78.398 26.3937 79.7155 28.4344C80.9265 30.3109 82.653 31.0928 84.7103 31.0928C88.2413 31.0928 90.1993 28.1011 90.1993 28.1011L90.0224 29.5531C89.956 30.1084 90.2804 30.6062 90.7056 30.6062H94.2764C94.8419 30.6062 95.3239 30.0637 95.4123 29.325L97.5568 11.4392C97.622 10.8886 97.2976 10.3893 96.8726 10.3893ZM91.3448 20.56C90.9645 23.5454 89.1639 25.5497 86.8707 25.5497C85.7214 25.5497 84.7987 25.0629 84.2078 24.1406C83.6219 23.2247 83.4014 21.9211 83.5856 20.4689C83.9451 17.509 85.7712 15.4396 88.0296 15.4396C89.1556 15.4396 90.0709 15.9326 90.674 16.8627C91.2806 17.8026 91.5203 19.1142 91.3448 20.56Z" fill="#469BDB"/>
<path d="M101.548 1.06227L98.1493 29.5575C98.0828 30.1095 98.4072 30.6074 98.8299 30.6074H102.247C102.815 30.6074 103.297 30.065 103.384 29.3262L106.736 1.34492C106.802 0.792599 106.478 0.293213 106.055 0.293213H102.229C101.891 0.294546 101.6 0.620478 101.548 1.06227Z" fill="#469BDB"/>
</svg>
