<svg width="98" height="42" viewBox="0 0 98 42" fill="none" xmlns="http://www.w3.org/2000/svg">
<g clip-path="url(#clip0_939_137)">
<path d="M7.13664 16.5458C7.13664 15.4987 7.9958 15.0959 9.41906 15.0959C11.4595 15.0959 14.037 15.7136 16.0775 16.8144V10.5046C13.8491 9.61863 11.6475 9.26957 9.41906 9.26957C3.96844 9.26957 0.34375 12.1157 0.34375 16.8682C0.34375 24.2784 10.5465 23.0972 10.5465 26.2924C10.5465 27.5272 9.47268 27.9301 7.969 27.9301C5.74057 27.9301 2.89443 27.0171 0.639011 25.7821V32.1723C3.13608 33.2463 5.65996 33.7026 7.969 33.7026C13.5537 33.7026 17.3932 30.9373 17.3932 26.1312C17.3664 18.13 7.13664 19.5529 7.13664 16.5458ZM25.2869 3.89974L18.7356 5.29582L18.7088 26.8023C18.7088 30.7762 21.6892 33.7026 25.6629 33.7026C27.8646 33.7026 29.4755 33.2999 30.3614 32.8166V27.3662C29.5025 27.7153 25.2601 28.9503 25.2601 24.9765V15.4449H30.3614V9.72605H25.2601L25.2869 3.89974ZM38.7118 11.7128L38.2821 9.72605H32.4826V33.2193H39.1951V17.2977C40.779 15.2303 43.4641 15.6062 44.2965 15.9014V9.72605C43.4373 9.4038 40.2959 8.81308 38.7118 11.7128ZM45.9342 9.72605H52.6735V33.2193H45.9342V9.72605ZM45.9342 7.68547L52.6735 6.23559V0.785156L45.9342 2.20822V7.68528V7.68547ZM66.6889 9.26957C64.0576 9.26957 62.3661 10.5046 61.4265 11.364L61.0773 9.69924H55.1705V41.0056L61.8828 39.5827L61.9098 31.9843C62.8764 32.6824 64.2993 33.6758 66.6621 33.6758C71.4682 33.6758 75.8447 29.8095 75.8447 21.2982C75.8179 13.5118 71.3876 9.26957 66.6889 9.26957ZM65.078 27.7689C63.4939 27.7689 62.554 27.2052 61.9098 26.507L61.8828 16.5458C62.581 15.7672 63.5475 15.2303 65.078 15.2303C67.5213 15.2303 69.2128 17.9688 69.2128 21.4861C69.2128 25.084 67.5481 27.7689 65.078 27.7689ZM97.0021 21.5667C97.0021 14.6932 93.6727 9.26957 87.3094 9.26957C80.919 9.26957 77.0527 14.6934 77.0527 21.5131C77.0527 29.5946 81.6174 33.6758 88.1684 33.6758C91.3636 33.6758 93.7801 32.9509 95.6058 31.9307V26.5606C93.7803 27.4736 91.6859 28.0375 89.0278 28.0375C86.4233 28.0375 84.1142 27.1246 83.819 23.9563H96.9485C96.9485 23.6071 97.0021 22.211 97.0021 21.5667ZM83.7384 19.016C83.7384 15.982 85.5911 14.72 87.2826 14.72C88.9203 14.72 90.6657 15.982 90.6657 19.016H83.7384Z" fill="#154444" fill-opacity="0.86"/>
</g>
<defs>
<clipPath id="clip0_939_137">
<rect width="96.6583" height="40.4032" fill="white" transform="translate(0.34375 0.78418)"/>
</clipPath>
</defs>
</svg>
