<svg width="99" height="35" viewBox="0 0 99 35" fill="none" xmlns="http://www.w3.org/2000/svg">
<g clip-path="url(#clip0_939_87)">
<path d="M6.57441 25.2687C6.98558 26.3671 7.55483 27.3062 8.28228 28.0861C9.00972 28.8661 9.87153 29.463 10.8677 29.8769C11.864 30.2908 12.9472 30.4976 14.1174 30.4976C15.256 30.4976 16.3233 30.2827 17.3196 29.8529C18.3159 29.4231 19.1855 28.8182 19.9287 28.0383C20.6719 27.2583 21.2491 26.3272 21.6603 25.2448C22.0715 24.1624 22.277 22.9528 22.277 21.6156V0.986328H27.2582V34.4133H22.3245V31.3094C21.2175 32.4872 19.9129 33.3945 18.4106 34.0313C16.9083 34.668 15.2876 34.9863 13.5481 34.9863C11.7769 34.9863 10.1245 34.6759 8.59058 34.0551C7.05675 33.4343 5.72835 32.551 4.6057 31.4049C3.48304 30.2587 2.59741 28.8821 1.94911 27.2743C1.30071 25.6666 0.976562 23.8759 0.976562 21.902V0.986328H5.95771V21.6156C5.95771 22.9528 6.16324 24.1703 6.57441 25.2687Z" fill="#154444"/>
<path d="M35.8441 0.986328V13.1633C36.951 12.0491 38.232 11.1657 39.6867 10.513C41.1415 9.86035 42.7229 9.53406 44.4307 9.53406C46.2018 9.53406 47.862 9.86827 49.4118 10.5368C50.9615 11.2053 52.3055 12.1127 53.4441 13.2588C54.5828 14.4049 55.4841 15.7578 56.1483 17.3177C56.8124 18.8778 57.1445 20.5332 57.1445 22.2841C57.1445 24.035 56.8124 25.6825 56.1483 27.2264C55.4841 28.7705 54.5828 30.1156 53.4441 31.2615C52.3055 32.4076 50.9615 33.3149 49.4118 33.9835C47.862 34.652 46.2017 34.9862 44.4307 34.9862C42.7228 34.9862 41.1337 34.6599 39.663 34.0072C38.1924 33.3547 36.9036 32.4712 35.7967 31.357V34.4132H31.0527V0.986328H35.8441ZM36.3896 25.579C36.8165 26.5978 37.4096 27.4892 38.1687 28.2533C38.9277 29.0173 39.8132 29.6222 40.8253 30.0679C41.8374 30.5136 42.9284 30.7364 44.0986 30.7364C45.2373 30.7364 46.3125 30.5136 47.3245 30.0679C48.3365 29.6222 49.2141 29.0174 49.9575 28.2533C50.7006 27.4893 51.2936 26.5978 51.7364 25.579C52.1791 24.5603 52.4005 23.4621 52.4005 22.2841C52.4005 21.1062 52.1791 19.9999 51.7364 18.9652C51.2936 17.9306 50.7006 17.0313 49.9575 16.2672C49.2142 15.5033 48.3366 14.9063 47.3245 14.4766C46.3124 14.0468 45.2372 13.8318 44.0986 13.8318C42.9601 13.8318 41.8848 14.0467 40.8728 14.4766C39.8608 14.9064 38.9753 15.5033 38.2161 16.2672C37.4572 17.0313 36.8562 17.9306 36.4135 18.9652C35.9707 19.9999 35.7493 21.1062 35.7493 22.2841C35.7492 23.4621 35.9627 24.5603 36.3896 25.579Z" fill="#154444"/>
<path d="M59.849 17.3656C60.4815 15.8375 61.3513 14.4925 62.4581 13.3305C63.565 12.1686 64.8776 11.2533 66.3957 10.5848C67.9138 9.91624 69.5583 9.58203 71.3294 9.58203C73.0689 9.58203 74.6818 9.90039 76.1683 10.537C77.6547 11.1737 78.9355 12.0572 80.0109 13.1874C81.0862 14.3174 81.9244 15.6546 82.5251 17.1986C83.1261 18.7426 83.4265 20.4219 83.4265 22.2366V23.8124H63.7391C63.8973 24.7993 64.2136 25.7146 64.6879 26.5581C65.1624 27.4017 65.7553 28.134 66.4669 28.7547C67.1785 29.3756 67.9849 29.8611 68.8863 30.2112C69.7877 30.5614 70.7443 30.7366 71.7564 30.7366C74.6345 30.7366 76.9591 29.5427 78.7301 27.155L82.1932 29.7336C80.9914 31.3572 79.505 32.6307 77.7339 33.5539C75.9628 34.477 73.9703 34.9387 71.7565 34.9387C69.9538 34.9387 68.2697 34.6202 66.7042 33.9836C65.1387 33.347 63.7788 32.4555 62.6244 31.3094C61.4701 30.1632 60.5608 28.8182 59.8967 27.2743C59.2325 25.7303 58.9004 24.0509 58.9004 22.2364C58.9002 20.5173 59.2166 18.8937 59.849 17.3656ZM66.5143 15.4793C65.1702 16.6095 64.2768 18.1137 63.834 19.992H78.5878C78.1766 18.1137 77.2989 16.6095 75.9548 15.4793C74.6107 14.3492 73.0373 13.7842 71.2346 13.7842C69.4318 13.7842 67.8584 14.3492 66.5143 15.4793Z" fill="#154444"/>
<path d="M92.3916 16.0283C91.3796 17.1425 90.8735 18.6547 90.8735 20.5649V34.4133H86.082V10.0593H90.8259V13.0678C91.4269 12.0809 92.2097 11.3009 93.1742 10.7278C94.1388 10.1547 95.2853 9.86816 96.6137 9.86816H98.274V14.357H96.2816C94.7003 14.3571 93.4036 14.9141 92.3916 16.0283Z" fill="#154444"/>
</g>
<defs>
<clipPath id="clip0_939_87">
<rect width="97.2975" height="34" fill="white" transform="translate(0.976562 0.986328)"/>
</clipPath>
</defs>
</svg>
