<svg width="99" height="41" viewBox="0 0 99 41" fill="none" xmlns="http://www.w3.org/2000/svg">
<g filter="url(#filter0_d_939_108)">
<g clip-path="url(#clip0_939_108)">
<path d="M37.5977 30.7465L42.1488 5.14648H49.2599L44.851 30.7465H37.5977Z" fill="#3C58BF"/>
<path d="M37.5977 30.7465L43.4288 5.14648H49.2599L44.851 30.7465H37.5977Z" fill="#293688"/>
<path d="M70.592 5.43075C69.1698 4.86186 66.8943 4.29297 64.0498 4.29297C56.9387 4.29297 51.8187 7.84852 51.8187 12.9685C51.8187 16.8085 55.3743 18.7996 58.2187 20.0796C61.0631 21.3596 61.9165 22.213 61.9165 23.3507C61.9165 25.0574 59.6409 25.9107 57.6498 25.9107C54.8054 25.9107 53.2409 25.4841 50.8231 24.4885L49.8276 24.0619L48.832 29.893C50.5387 30.6041 53.6676 31.3152 56.9387 31.3152C64.4765 31.3152 69.4543 27.7596 69.4543 22.3552C69.4543 19.3685 67.6054 17.093 63.3387 15.2441C60.7787 13.9641 59.2143 13.253 59.2143 11.973C59.2143 10.8352 60.4943 9.69741 63.3387 9.69741C65.7565 9.69741 67.4631 10.1241 68.7431 10.693L69.4543 10.9774L70.592 5.43075Z" fill="#3C58BF"/>
<path d="M70.592 5.43075C69.1698 4.86186 66.8943 4.29297 64.0498 4.29297C56.9387 4.29297 53.0987 7.84852 53.0987 12.9685C53.0987 16.8085 55.3743 18.7996 58.2187 20.0796C61.0631 21.3596 61.9165 22.213 61.9165 23.3507C61.9165 25.0574 59.6409 25.9107 57.6498 25.9107C54.8054 25.9107 53.2409 25.4841 50.8231 24.4885L49.8276 24.0619L48.832 29.893C50.5387 30.6041 53.6676 31.3152 56.9387 31.3152C64.4765 31.3152 69.4543 27.7596 69.4543 22.3552C69.4543 19.3685 67.6054 17.093 63.3387 15.2441C60.7787 13.9641 59.2143 13.253 59.2143 11.973C59.2143 10.8352 60.4943 9.69741 63.3387 9.69741C65.7565 9.69741 67.4631 10.1241 68.7431 10.693L69.4543 10.9774L70.592 5.43075Z" fill="#293688"/>
<path d="M82.8234 5.14648C81.1168 5.14648 79.8368 5.28871 79.1256 6.99538L68.459 30.7465H76.139L77.5612 26.4798H86.6634L87.5168 30.7465H94.3434L88.3701 5.14648H82.8234ZM79.5523 22.2132C79.979 20.9332 82.3968 14.6754 82.3968 14.6754C82.3968 14.6754 82.9656 13.1109 83.3923 12.1154L83.819 14.5332C83.819 14.5332 85.2412 20.9332 85.5256 22.3554H79.5523V22.2132Z" fill="#3C58BF"/>
<path d="M84.5301 5.14648C82.8234 5.14648 81.5434 5.28871 80.8323 6.99538L68.459 30.7465H76.139L77.5612 26.4798H86.6634L87.5168 30.7465H94.3434L88.3701 5.14648H84.5301ZM79.5523 22.2132C80.1212 20.7909 82.3968 14.6754 82.3968 14.6754C82.3968 14.6754 82.9656 13.1109 83.3923 12.1154L83.819 14.5332C83.819 14.5332 85.2412 20.9332 85.5256 22.3554H79.5523V22.2132Z" fill="#293688"/>
<path d="M24.5124 23.0668L23.8013 19.3691C22.5213 15.1024 18.3968 10.4091 13.8457 8.13351L20.2457 30.8891H27.9257L39.4457 5.28906H31.7657L24.5124 23.0668Z" fill="#3C58BF"/>
<path d="M24.5124 23.0668L23.8013 19.3691C22.5213 15.1024 18.3968 10.4091 13.8457 8.13351L20.2457 30.8891H27.9257L39.4457 5.28906H33.1879L24.5124 23.0668Z" fill="#293688"/>
<path d="M4.74414 5.14648L6.02414 5.43093C15.1264 7.56426 21.3841 12.9687 23.8019 19.3687L21.2419 7.27982C20.8153 5.57315 19.5353 5.14648 17.9708 5.14648H4.74414Z" fill="#FFBC00"/>
<path d="M4.74414 5.14648C13.8464 7.27982 21.3841 12.8265 23.8019 19.2265L21.3841 9.12871C20.9575 7.42204 19.5353 6.42649 17.9708 6.42649L4.74414 5.14648Z" fill="#F7981D"/>
<path d="M4.74414 5.14648C13.8464 7.27982 21.3841 12.8265 23.8019 19.2265L22.0953 13.6798C21.6686 11.9731 21.0997 10.2665 19.1086 9.55537L4.74414 5.14648Z" fill="#ED7C00"/>
<path d="M31.6238 22.2134L26.7883 17.3779L24.5127 22.7823L23.9438 19.2268C22.6638 14.9601 18.5394 10.2668 13.9883 7.99121L20.3883 30.7468H28.0683L31.6238 22.2134Z" fill="#051244"/>
<path d="M44.849 30.747L38.7335 24.4893L37.5957 30.747H44.849Z" fill="#051244"/>
<path d="M61.2054 21.9287C61.7743 22.4976 62.0587 22.9243 61.9165 23.4932C61.9165 25.1998 59.6409 26.0532 57.6498 26.0532C54.8054 26.0532 53.2409 25.6265 50.8231 24.6309L49.8276 24.2043L48.832 30.0354C50.5387 30.7465 53.6676 31.4576 56.9387 31.4576C61.4898 31.4576 65.1876 30.1776 67.3209 27.902L61.2054 21.9287Z" fill="#051244"/>
<path d="M69.4551 30.7463H76.1395L77.5617 26.4797H86.664L87.5173 30.7463H94.344L91.9262 20.3641L83.3929 12.1152L83.8195 14.3908C83.8195 14.3908 85.2417 20.7908 85.5262 22.213H79.5529C80.1217 20.7908 82.3973 14.6752 82.3973 14.6752C82.3973 14.6752 82.9662 13.1108 83.3929 12.1152" fill="#051244"/>
</g>
</g>
<defs>
<filter id="filter0_d_939_108" x="0.744141" y="0.986328" width="97.5996" height="40" filterUnits="userSpaceOnUse" color-interpolation-filters="sRGB">
<feFlood flood-opacity="0" result="BackgroundImageFix"/>
<feColorMatrix in="SourceAlpha" type="matrix" values="0 0 0 0 0 0 0 0 0 0 0 0 0 0 0 0 0 0 127 0" result="hardAlpha"/>
<feOffset dy="4"/>
<feGaussianBlur stdDeviation="2"/>
<feComposite in2="hardAlpha" operator="out"/>
<feColorMatrix type="matrix" values="0 0 0 0 0 0 0 0 0 0 0 0 0 0 0 0 0 0 0.25 0"/>
<feBlend mode="normal" in2="BackgroundImageFix" result="effect1_dropShadow_939_108"/>
<feBlend mode="normal" in="SourceGraphic" in2="effect1_dropShadow_939_108" result="shape"/>
</filter>
<clipPath id="clip0_939_108">
<rect width="89.6" height="32" fill="white" transform="translate(4.74414 0.986328)"/>
</clipPath>
</defs>
</svg>
