<svg width="17" height="17" viewBox="0 0 17 17" fill="none" xmlns="http://www.w3.org/2000/svg">
<g clip-path="url(#clip0_1047_177)">
<path d="M16.8919 6.18191C16.7871 5.85793 16.4998 5.62782 16.1598 5.59718L11.5418 5.17786L9.71568 0.9037C9.58103 0.590459 9.27438 0.387695 8.93368 0.387695C8.59297 0.387695 8.28632 0.590459 8.15167 0.904432L6.32558 5.17786L1.7068 5.59718C1.36744 5.62855 1.08081 5.85793 0.975463 6.18191C0.870114 6.50589 0.967406 6.86125 1.22413 7.08525L4.71482 10.1466L3.68549 14.6808C3.61017 15.0142 3.73957 15.3588 4.01619 15.5587C4.16488 15.6662 4.33883 15.7209 4.51425 15.7209C4.6655 15.7209 4.81553 15.6801 4.95017 15.5995L8.93368 13.2187L12.9157 15.5995C13.2071 15.7748 13.5744 15.7588 13.8504 15.5587C14.1272 15.3582 14.2564 15.0134 14.1811 14.6808L13.1518 10.1466L16.6425 7.08587C16.8992 6.86125 16.9972 6.5065 16.8919 6.18191Z" fill="#FFB624"/>
</g>
<defs>
<clipPath id="clip0_1047_177">
<rect width="16" height="16" fill="white" transform="translate(0.933594 0.0439453)"/>
</clipPath>
</defs>
</svg>
